<svg width="94" height="93" viewBox="0 0 94 93" fill="none" xmlns="http://www.w3.org/2000/svg">
<g clip-path="url(#clip0_11_9)">
<path d="M90.547 43.3441C90.547 67.7904 70.5164 87.6079 45.8073 87.6079C21.0982 87.6079 1.06653 67.7904 1.06653 43.3441C1.06653 43.3441 12.841 34.823 24.1587 44.153C35.4764 53.4831 48.0739 43.4922 48.0739 43.4922C48.0739 43.4922 59.1427 34.2688 70.0985 43.4922C80.4079 52.1743 90.547 43.3441 90.547 43.3441Z" fill="#178E3B"/>
<path d="M47.002 88.9764C40.8284 88.9807 34.7144 87.7808 29.0099 85.4454C23.3054 83.11 18.1222 79.6849 13.7568 75.3659C9.39136 71.047 5.92939 65.9189 3.56888 60.2751C1.20837 54.6312 -0.00437918 48.5824 1.18816e-05 42.4744C-1.93564e-05 42.1224 0.0838571 41.7754 0.24483 41.4615C0.405802 41.1476 0.639333 40.8757 0.926456 40.6679C1.06219 40.5698 4.30582 38.2496 9.07055 37.1955C13.5423 36.2064 20.2493 36.1606 26.8023 41.5653C30.8797 44.9268 35.6272 45.8487 40.9144 44.3065C44.883 43.1491 47.6559 41.0303 47.8412 40.8853C48.202 40.5911 51.1968 38.2208 55.5565 37.0111C59.8655 35.811 66.3377 35.519 72.7571 40.9194C76.3724 43.9633 80.3561 44.8991 84.5973 43.7022C86.6567 43.1062 88.5783 42.1174 90.254 40.7915C90.5811 40.5086 90.9837 40.3249 91.4136 40.2624C91.8434 40.1998 92.2824 40.2611 92.678 40.4388C93.0737 40.6165 93.4092 40.9032 93.6445 41.2645C93.8798 41.6259 94.005 42.0467 94.005 42.4765C94.0091 48.5844 92.7961 54.6331 90.4354 60.2768C88.0747 65.9205 84.6126 71.0483 80.2471 75.3671C75.8816 79.6858 70.6984 83.1108 64.9939 85.446C59.2894 87.7812 53.1755 88.9808 47.002 88.9764ZM4.54174 43.6969C5.19779 66.3068 23.9928 84.5 47.002 84.5C68.9889 84.5 87.1278 67.8874 89.2683 46.6822C88.2264 47.1955 87.1419 47.6195 86.0268 47.9494C82.0022 49.1303 75.9232 49.4607 69.8237 44.3257C65.9316 41.0484 61.5924 40.0231 56.9278 41.2765C54.6789 41.8944 52.5706 42.9335 50.7174 44.3374L50.6808 44.3673C50.5375 44.4803 47.1259 47.1575 42.1931 48.5964C35.4634 50.5596 29.1399 49.3158 23.9044 45.0014C19.7785 41.6005 15.1194 40.443 10.0562 41.5632C8.12191 42.0019 6.26369 42.7209 4.54174 43.6969Z" fill="#203529"/>
<path d="M76.5738 41.1667C76.247 41.1682 75.9213 41.1291 75.6043 41.0505C75.1391 40.9373 74.7042 40.7256 74.3298 40.4298C73.9554 40.1341 73.6504 39.7615 73.4358 39.3378C72.9252 38.354 73.0275 37.1315 73.8117 34.8443C73.9195 34.5246 74.0337 34.2166 74.1349 33.932C63.6855 23.3049 61.1195 22.675 57.8963 21.8885C57.5149 21.7947 57.1174 21.6977 56.6952 21.5847C56.6901 22.0688 56.5265 22.5382 56.2289 22.9226C55.9314 23.3069 55.5159 23.5854 55.0448 23.7163C54.2241 23.9477 53.3752 24.0664 52.5218 24.0691C50.21 24.0691 48.0092 23.1664 46.1488 21.4217C45.2994 20.6141 44.5609 19.6996 43.9522 18.7017C43.1217 18.6559 41.1514 18.8083 37.4574 20.3953C36.5331 20.7928 35.0088 21.4494 33.5965 21.4494C32.6572 21.4494 31.7652 21.1595 31.1371 20.309C29.8574 18.5834 31.1856 16.5541 31.623 15.887C31.8998 15.4606 32.1918 15.078 32.4169 14.7956C33.2486 11.3637 35.1715 8.6928 38.1415 6.85216C45.803 2.10615 58.1064 4.64063 60.5173 5.20231C64.0453 4.89962 66.119 5.31528 67.2038 6.53562C67.4972 6.85429 67.7102 7.23707 67.8255 7.65271C67.9409 8.06836 67.9552 8.5051 67.8674 8.92728C67.8201 9.133 67.7435 9.33107 67.6401 9.5156C75.1152 14.6144 79.9209 26.9127 81.3213 30.8817C87.5856 32.4218 90.8583 35.0106 91.0037 35.1268C91.3654 35.4174 91.6276 35.8115 91.7544 36.2551C91.8812 36.6987 91.8664 37.1702 91.7121 37.6052C91.5578 38.0402 91.2715 38.4175 90.8923 38.6854C90.5131 38.9534 90.0596 39.0989 89.5936 39.1022L82.2521 39.1544C82.0888 39.1556 81.9259 39.1391 81.7662 39.1054C81.726 39.1374 81.6847 39.1679 81.6423 39.1971C81.057 39.5929 80.4451 39.949 79.811 40.2629C78.5829 40.8682 77.5143 41.1667 76.5738 41.1667ZM52.022 15.5246C52.2788 15.5258 52.5351 15.549 52.7879 15.5939C53.4688 15.7111 54.3026 15.9775 55.4121 16.4316C56.8126 17.0071 57.9243 17.2789 58.993 17.5411C60.9137 18.0122 62.9002 18.5003 65.8874 20.5253C68.4298 22.2572 71.6378 25.071 75.8672 29.2841C73.8613 24.3814 70.0155 16.4945 64.9588 13.1276L64.8791 13.0722C63.3559 11.9605 62.5522 10.7903 62.4811 9.58275C61.9888 9.58275 61.3608 9.61578 60.5679 9.68932C60.3031 9.71517 60.0358 9.69461 59.7783 9.62857C59.6555 9.59767 47.2185 6.49938 40.5362 10.6485C38.5972 11.8518 37.3809 13.5411 36.824 15.806C43.2197 13.2971 45.8913 14.3479 46.7607 14.9469C47.0956 15.1714 47.3608 15.4836 47.5266 15.8486C47.9736 16.7112 48.5606 17.4954 49.2642 18.1699C49.2434 17.6615 49.3822 17.1592 49.6617 16.7321C49.9666 16.2504 50.6539 15.5246 52.022 15.5246Z" fill="#203529"/>
<path d="M44.7042 11.5321C44.7042 11.8213 44.8203 12.0986 45.027 12.3031C45.2337 12.5075 45.514 12.6224 45.8063 12.6224C46.0985 12.6224 46.3788 12.5075 46.5855 12.3031C46.7922 12.0986 46.9083 11.8213 46.9083 11.5321C46.9083 11.2429 46.7922 10.9656 46.5855 10.7611C46.3788 10.5567 46.0985 10.4418 45.8063 10.4418C45.514 10.4418 45.2337 10.5567 45.027 10.7611C44.8203 10.9656 44.7042 11.2429 44.7042 11.5321Z" fill="#203529"/>
<path d="M69.1386 34.9946C68.9816 34.9949 68.8262 34.9627 68.6824 34.9001C68.5386 34.8375 68.4097 34.7459 68.3037 34.6312C68.2456 34.5683 63.0586 29.073 55.8905 29.2585C55.7419 29.2623 55.5941 29.2372 55.4554 29.1845C55.3166 29.1318 55.1898 29.0526 55.082 28.9514C54.9742 28.8502 54.8876 28.729 54.8272 28.5947C54.7667 28.4604 54.7336 28.3157 54.7297 28.1687C54.7258 28.0217 54.7512 27.8755 54.8045 27.7382C54.8577 27.601 54.9378 27.4754 55.0401 27.3688C55.1424 27.2622 55.2649 27.1765 55.4006 27.1167C55.5364 27.0569 55.6827 27.0242 55.8312 27.0203C64.0583 26.8071 69.7365 32.863 69.9746 33.1209C70.1222 33.2813 70.2195 33.4806 70.2547 33.6946C70.2899 33.9087 70.2616 34.1282 70.173 34.3266C70.0844 34.525 69.9395 34.6936 69.7559 34.812C69.5723 34.9304 69.3578 34.9935 69.1386 34.9936V34.9946ZM48.2613 36.2469C48.0238 36.2472 47.7923 36.1734 47.5995 36.0362C47.4067 35.8989 47.2625 35.7051 47.1873 35.4822C47.1121 35.2594 47.1097 35.0187 47.1805 34.7944C47.2512 34.5701 47.3916 34.3736 47.5816 34.2326C53.0131 30.2028 63.1598 33.2019 63.5886 33.3309C63.8756 33.4175 64.116 33.6134 64.257 33.8755C64.3981 34.1375 64.4281 34.4442 64.3405 34.7282C64.2529 35.0121 64.0549 35.25 63.7901 35.3895C63.5252 35.529 63.2152 35.5587 62.9282 35.4721C62.8345 35.4433 53.4483 32.6754 48.9378 36.0231C48.7428 36.1683 48.5054 36.2469 48.2613 36.2469ZM89.5775 32.5113H89.5463C89.3974 32.5077 89.2508 32.4751 89.1147 32.4153C88.9786 32.3555 88.8559 32.2697 88.7534 32.1629C88.6509 32.0561 88.5707 31.9303 88.5175 31.7927C88.4642 31.6551 88.439 31.5085 88.4431 31.3613C88.5164 28.6968 86.1367 23.3486 85.2114 21.5133C85.1421 21.3814 85.1001 21.2372 85.0878 21.0891C85.0755 20.941 85.0931 20.7919 85.1396 20.6506C85.1862 20.5093 85.2607 20.3786 85.3589 20.2661C85.4571 20.1536 85.5769 20.0615 85.7114 19.9953C85.8459 19.9292 85.9924 19.8902 86.1423 19.8806C86.2922 19.871 86.4425 19.8911 86.5845 19.9396C86.7265 19.9882 86.8573 20.0642 86.9693 20.1633C87.0812 20.2624 87.1721 20.3826 87.2366 20.5168C87.382 20.8067 90.8056 27.6577 90.7022 31.4221C90.6943 31.7126 90.5726 31.9886 90.3627 32.1919C90.1528 32.3952 89.8712 32.5098 89.5775 32.5113ZM43.2413 59.4324C41.1064 59.4169 38.9845 59.1033 36.9382 58.5009C32.0442 57.1004 28.5744 54.6299 28.4279 54.5254C28.185 54.351 28.0221 54.0883 27.9751 53.7951C27.928 53.5019 28.0006 53.2022 28.1769 52.9619C28.3532 52.7216 28.6187 52.5605 28.9151 52.5139C29.2114 52.4673 29.5144 52.5391 29.7572 52.7136C32.1741 54.3265 34.8291 55.559 37.6277 56.3671C43.5451 58.0447 48.6761 57.2059 52.8774 53.8753C57.1466 50.4914 62.5393 49.8636 68.475 52.0634C71.216 53.0942 73.779 54.5388 76.073 56.3458C76.3028 56.5367 76.4466 56.8102 76.4726 57.106C76.4987 57.4018 76.4049 57.6958 76.2119 57.9232C76.0189 58.1506 75.7425 58.2928 75.4435 58.3186C75.1445 58.3444 74.8474 58.2516 74.6176 58.0607C72.5021 56.4113 70.1454 55.0899 67.6283 54.1417C62.4305 52.2286 57.9437 52.7317 54.294 55.6232C51.1042 58.1513 47.3553 59.4324 43.2413 59.4324Z" fill="#203529"/>
<path d="M38.8579 70.5657C34.3258 70.5657 29.3198 69.5756 26.0212 66.7203C20.0898 61.5863 14.2425 65.5874 13.9958 65.7611C13.7518 65.9279 13.4515 65.9932 13.1593 65.943C12.8672 65.8928 12.6066 65.7311 12.4338 65.4928C12.2609 65.2544 12.1896 64.9584 12.2351 64.6685C12.2806 64.3787 12.4394 64.1181 12.6772 63.9428C14.0849 63.022 15.6653 62.3906 17.3245 62.0862C19.8679 61.6119 23.6997 61.7388 27.51 65.0363C31.4786 68.4714 38.5325 68.7666 43.3673 67.9705C47.0785 67.3619 49.3019 66.1693 49.7975 65.3199C49.9495 65.0671 50.196 64.8837 50.4837 64.8094C50.7713 64.7351 51.077 64.7759 51.3345 64.9228C51.5921 65.0697 51.7808 65.3111 51.8598 65.5946C51.9389 65.8781 51.902 66.1811 51.757 66.4379C50.3458 68.8572 45.6791 69.8591 43.7379 70.1778C42.1245 70.4376 40.4925 70.5674 38.8579 70.5657Z" fill="#2FA65B"/>
<path d="M71.2651 75.4716C71.0535 75.4714 70.8463 75.4123 70.6672 75.3011C70.6198 75.2723 68.4275 73.9475 65.2324 73.2664C61.0052 72.3669 57.0905 72.9616 53.598 75.0346C53.4706 75.1152 53.3281 75.1698 53.179 75.195C53.0299 75.2202 52.8772 75.2155 52.7299 75.1813C52.5827 75.1471 52.4438 75.084 52.3217 74.9957C52.1995 74.9075 52.0964 74.7959 52.0186 74.6676C51.9408 74.5393 51.8898 74.3968 51.8686 74.2486C51.8474 74.1005 51.8564 73.9496 51.8952 73.8049C51.934 73.6603 52.0017 73.5248 52.0944 73.4065C52.187 73.2882 52.3027 73.1895 52.4345 73.1162C56.4032 70.7608 61.0225 70.0627 65.7926 71.0975C69.3691 71.8734 71.766 73.3421 71.8662 73.4039C72.0744 73.5329 72.2345 73.7254 72.3223 73.9523C72.4101 74.1792 72.4209 74.4283 72.353 74.6618C72.2851 74.8954 72.1423 75.1007 71.946 75.2468C71.7497 75.3929 71.5107 75.4718 71.2651 75.4716Z" fill="#203529"/>
</g>
<defs>
<clipPath id="clip0_11_9">
<rect width="94" height="93" fill="white"/>
</clipPath>
</defs>
</svg>
