<svg width="94" height="94" viewBox="0 0 94 94" fill="none" xmlns="http://www.w3.org/2000/svg">
<g clip-path="url(#clip0_11_2)">
<path d="M14.0349 24.7363L28.5511 4.66715H61.381L71.1392 15.6573L67.5018 29.6154L47.6306 28.5024L50.5174 24.1339L45.4306 15.732L29.6998 36.5225L14.0349 24.7363Z" fill="#178E3B"/>
<path d="M17.8362 22.0507L32.3903 30.9869L30.3053 34.3826L15.7512 25.4464L17.8362 22.0507Z" fill="#2FA65B"/>
<path d="M30.538 39.3152C30.1176 39.3148 29.7055 39.1972 29.3482 38.9756L11.8868 28.1715C11.6314 28.0135 11.4099 27.8064 11.235 27.5621C11.0601 27.3179 10.9355 27.0415 10.8682 26.7488C10.8009 26.456 10.7923 26.1529 10.843 25.8568C10.8936 25.5608 11.0025 25.2777 11.1632 25.024L21.2167 9.16446C22.5258 7.08628 24.3415 5.37486 26.4934 4.19088C28.6453 3.00691 31.0628 2.38921 33.5189 2.39579H56.0844C58.5192 2.39062 60.9161 2.99818 63.0544 4.16251C65.1928 5.32685 67.0037 7.01052 68.3206 9.05847L70.5011 12.4352L74.039 10.4689C74.4555 10.2372 74.9344 10.1424 75.4078 10.1979C75.8812 10.2534 76.3251 10.4565 76.6767 10.7783C77.0283 11.1001 77.2698 11.5244 77.3669 11.991C77.464 12.4577 77.4119 12.943 77.2178 13.3784L68.8895 32.0901C68.6995 32.5167 68.3825 32.8744 67.9819 33.1144C67.5812 33.3544 67.1164 33.4651 66.6506 33.4313L45.8135 31.9322C45.3472 31.8974 44.9031 31.7195 44.5417 31.4228C44.1803 31.1261 43.9193 30.7252 43.7942 30.2747C43.6692 29.8241 43.6862 29.346 43.843 28.9055C43.9997 28.465 44.2886 28.0837 44.6702 27.8135L48.4688 25.1408L45.2943 19.8983L32.4016 38.344C32.1922 38.644 31.9134 38.889 31.5889 39.0581C31.2644 39.2272 30.9039 39.3154 30.538 39.3152ZM16.2306 25.5161L29.9085 33.9786L43.5681 14.4319C43.7846 14.1216 44.0751 13.8704 44.4134 13.701C44.7516 13.5315 45.1268 13.4492 45.5049 13.4616C45.883 13.474 46.252 13.5806 46.5785 13.7717C46.9049 13.9629 47.1785 14.2326 47.3742 14.5563L53.4529 24.5968C53.7508 25.089 53.8509 25.6759 53.7328 26.2391C53.6148 26.8022 53.2874 27.2996 52.8169 27.6307L52.4924 27.8589L65.3829 28.7869L70.3442 17.6464C69.8788 17.7734 69.385 17.7488 68.9344 17.5763C68.4838 17.4039 68.0998 17.0924 67.8382 16.687L64.5047 11.5234C63.5985 10.1141 62.3523 8.95551 60.8808 8.15427C59.4093 7.35303 57.7599 6.93495 56.0844 6.93852H33.5189C31.8288 6.93403 30.1653 7.35906 28.6845 8.17372C27.2037 8.98838 25.9541 10.166 25.0532 11.5959L16.2306 25.5161Z" fill="#203529"/>
<path d="M39.6364 14.9813C39.4129 14.9814 39.1944 14.9156 39.0082 14.7921C38.8219 14.6686 38.6763 14.4929 38.5894 14.2869C38.0486 13.0128 36.9551 12.2124 35.3305 11.9074C34.4862 11.755 33.6235 11.7331 32.7726 11.8425C32.6254 11.8668 32.4749 11.8619 32.3297 11.828C32.1844 11.7941 32.0473 11.732 31.926 11.6451C31.8048 11.5582 31.7019 11.4483 31.6231 11.3217C31.5444 11.195 31.4914 11.0541 31.4671 10.9069C31.4428 10.7598 31.4477 10.6093 31.4816 10.464C31.5155 10.3188 31.5776 10.1816 31.6645 10.0604C31.7514 9.93918 31.8613 9.83626 31.9879 9.7575C32.1146 9.67875 32.2555 9.62572 32.4026 9.60143C33.4911 9.45074 34.5964 9.47044 35.6788 9.65984C38.1038 10.0925 39.8343 11.3904 40.6845 13.4033C40.7572 13.5759 40.7862 13.7639 40.7687 13.9505C40.7512 14.137 40.6879 14.3164 40.5844 14.4726C40.4809 14.6288 40.3404 14.7569 40.1754 14.8457C40.0103 14.9345 39.826 14.981 39.6386 14.9813H39.6364ZM45.2413 89.1187H45.1472L26.3857 88.3432C23.9312 88.2486 21.5411 87.5318 19.4397 86.26C17.3383 84.9882 15.5946 83.2033 14.3723 81.0727L3.09012 61.5292C1.86845 59.4232 1.19633 57.0436 1.13566 54.6097C1.07499 52.1758 1.62771 49.7657 2.74293 47.6014L4.58165 44.0245L1.10971 41.9435C0.700889 41.6986 0.379461 41.3313 0.190925 40.8936C0.00238852 40.456 -0.0437051 39.9701 0.0591691 39.5047C0.162043 39.0394 0.408674 38.6182 0.764146 38.3008C1.11962 37.9834 1.56593 37.7858 2.03988 37.7361L22.414 35.5956C22.8785 35.5468 23.3466 35.6423 23.7548 35.8691C24.163 36.096 24.4913 36.4431 24.6951 36.8632L33.8098 55.6561C34.0145 56.0778 34.0837 56.5525 34.008 57.0151C33.9322 57.4778 33.7151 57.9056 33.3866 58.2399C33.058 58.5743 32.634 58.7988 32.1728 58.8827C31.7116 58.9666 31.2358 58.9057 30.8105 58.7084L26.5923 56.755L23.6395 62.1252L46.0644 64.0645C46.6426 64.1145 47.1798 64.384 47.5656 64.8177C47.9514 65.2514 48.1565 65.8163 48.1389 66.3964L47.5116 86.9166C47.4936 87.5069 47.2463 88.067 46.8223 88.4781C46.3983 88.8892 45.8308 89.119 45.2402 89.1187H45.2413ZM9.16657 41.5498C9.50919 41.8895 9.73477 42.3294 9.81061 42.8058C9.88645 43.2823 9.80862 43.7705 9.58839 44.1998L6.78488 49.6738C6.0175 51.1631 5.63718 52.8215 5.67895 54.4964C5.72072 56.1712 6.18324 57.8086 7.02391 59.2578L18.3072 78.7992C19.1483 80.2653 20.3482 81.4936 21.7942 82.3688C23.2402 83.244 24.8849 83.7374 26.5739 83.8027L43.0413 84.483L43.5323 68.405L19.7717 66.3499C19.3956 66.317 19.0337 66.1908 18.7187 65.9829C18.4036 65.7749 18.1454 65.4918 17.9673 65.1589C17.7892 64.8261 17.6968 64.4541 17.6986 64.0767C17.7003 63.6992 17.7961 63.3281 17.9773 62.9969L23.633 52.712C23.9103 52.2079 24.3686 51.8279 24.9153 51.6486C25.4619 51.4693 26.0562 51.5042 26.5782 51.7461L26.9384 51.9127L21.2978 40.28L9.16657 41.5498Z" fill="#203529"/>
<path d="M22.0507 78.8511C21.8829 78.8512 21.7172 78.8142 21.5655 78.7425C21.4139 78.6709 21.28 78.5665 21.1735 78.4368C20.4987 77.5696 19.963 76.6026 19.5857 75.5706C18.7507 73.2527 19.0071 71.1068 20.3245 69.3643C20.5062 69.1241 20.7759 68.9659 21.0743 68.9245C21.3727 68.8831 21.6752 68.962 21.9155 69.1437C22.1557 69.3254 22.314 69.5951 22.3553 69.8935C22.3967 70.1919 22.3179 70.4945 22.1361 70.7347C20.0714 73.4647 22.8933 76.9593 22.9268 76.994C23.0635 77.1601 23.1501 77.3617 23.1767 77.5752C23.2032 77.7887 23.1686 78.0054 23.0768 78.1999C22.985 78.3945 22.8398 78.559 22.6582 78.6743C22.4765 78.7896 22.2658 78.8509 22.0507 78.8511ZM62.5589 91.6043C62.2002 91.6044 61.8466 91.5196 61.527 91.3568C61.2074 91.194 60.9309 90.9578 60.7202 90.6676L48.6798 74.0931C48.4055 73.7153 48.2543 73.2622 48.2467 72.7953C48.2392 72.3285 48.3756 71.8707 48.6376 71.4843L60.3535 54.1938C60.6164 53.8058 60.9929 53.5087 61.4312 53.3431C61.8696 53.1775 62.3485 53.1516 62.8022 53.2689C63.256 53.3862 63.6623 53.6409 63.9655 53.9982C64.2688 54.3555 64.4541 54.7978 64.4961 55.2646L64.9114 59.8906L71.0387 59.7629L61.5076 39.3726C61.2618 38.8468 61.2266 38.2468 61.4092 37.6959C61.5919 37.145 61.9785 36.6849 62.4897 36.41L80.5795 26.6929C80.844 26.5508 81.1341 26.4626 81.433 26.4334C81.7319 26.4042 82.0336 26.4345 82.3206 26.5226C82.6077 26.6107 82.8744 26.7549 83.1054 26.9467C83.3364 27.1386 83.5271 27.3744 83.6664 27.6404L92.369 44.2765C93.5142 46.4493 94.0886 48.8774 94.038 51.3329C93.9875 53.7885 93.3138 56.1909 92.0802 58.3147L80.7958 77.8571C79.5829 79.9681 77.8583 81.7401 75.7808 83.0097C73.7033 84.2793 71.3398 85.0058 68.9079 85.1222L64.8962 85.3223L64.8303 89.3697C64.8206 89.9657 64.5771 90.534 64.1521 90.952C63.7272 91.3701 63.155 91.6043 62.5589 91.6043ZM53.2917 72.713L60.4617 82.5815C60.5845 82.1149 60.8527 81.6995 61.2274 81.3955C61.6022 81.0916 62.064 80.9148 62.5459 80.891L68.6819 80.5849C70.3553 80.5047 71.9816 80.0048 73.4111 79.1312C74.8406 78.2576 76.0274 77.0383 76.862 75.5857L88.1507 56.0433C88.9999 54.5819 89.4637 52.9286 89.4987 51.2387C89.5337 49.5488 89.1387 47.8778 88.3508 46.3824L80.7071 31.7808L66.5381 39.3942L76.6392 60.9992C76.7994 61.3418 76.8715 61.7189 76.849 62.0964C76.8265 62.4738 76.7101 62.8397 76.5104 63.1608C76.3107 63.4819 76.034 63.7481 75.7053 63.9352C75.3767 64.1222 75.0066 64.2243 74.6285 64.2321L62.8877 64.4798C62.3124 64.4917 61.7541 64.2848 61.3255 63.901C60.8968 63.5171 60.6299 62.9849 60.5785 62.4118L60.5428 62.0159L53.2917 72.713Z" fill="#203529"/>
<path d="M79.7455 59.0631C79.4851 59.0631 79.225 59.0468 78.9667 59.0145C78.6678 58.9772 78.396 58.8227 78.211 58.5849C78.1194 58.4672 78.0519 58.3326 78.0123 58.1888C77.9727 58.045 77.9618 57.8948 77.9803 57.7468C77.9988 57.5988 78.0462 57.4559 78.1199 57.3262C78.1936 57.1966 78.2921 57.0827 78.4098 56.9911C78.6475 56.8061 78.949 56.7231 79.2479 56.7604C82.6442 57.1844 84.2568 52.9878 84.2731 52.9456C84.3254 52.8059 84.4047 52.6779 84.5066 52.5688C84.6084 52.4598 84.7307 52.3719 84.8665 52.3101C85.0023 52.2484 85.1489 52.214 85.298 52.2089C85.4471 52.2038 85.5957 52.2281 85.7354 52.2804C85.8751 52.3328 86.0031 52.4121 86.1121 52.5139C86.2212 52.6157 86.3091 52.738 86.3708 52.8738C86.4326 53.0096 86.467 53.1562 86.4721 53.3053C86.4772 53.4544 86.4529 53.603 86.4006 53.7427C85.9873 54.7622 85.4177 55.7109 84.7122 56.5549C83.3126 58.2065 81.6091 59.0631 79.7455 59.0631Z" fill="#203529"/>
</g>
<defs>
<clipPath id="clip0_11_2">
<rect width="94" height="94" fill="white"/>
</clipPath>
</defs>
</svg>
