<svg width="94" height="94" viewBox="0 0 94 94" fill="none" xmlns="http://www.w3.org/2000/svg">
<g clip-path="url(#clip0_11_17)">
<path d="M35.8838 85.7983C35.4339 85.7982 34.9951 85.6582 34.6281 85.3978C34.2612 85.1373 33.9844 84.7692 33.8359 84.3444C33.7821 84.1905 33.7325 84.0344 33.684 83.8753C32.7437 80.7341 33.0557 76.8583 34.6635 71.6826C35.8518 67.8594 37.6239 63.6839 39.6739 59.0765C35.0469 56.4933 32.1392 53.3325 28.8306 49.7429C24.5084 45.0538 19.1302 39.2178 7.49127 31.9838C7.08963 31.7354 6.78 31.3627 6.60937 30.9224C6.43873 30.4821 6.41641 29.9981 6.54579 29.5439C6.67517 29.0897 6.94919 28.6901 7.32626 28.4058C7.70333 28.1215 8.16287 27.9679 8.63512 27.9685C18.1589 27.9819 26.7176 32.9148 33.6013 36.8774C38.7522 39.845 43.618 42.6473 45.9398 41.4146C45.9986 41.3836 46.1009 41.3113 46.1991 41.2503C46.3469 41.1521 46.5308 41.0302 46.7426 40.9124C47.0102 40.7636 47.2076 40.6458 47.3977 40.5332L47.4897 40.4784C47.5656 40.4332 47.6237 40.3631 47.654 40.28C52.3668 27.3072 53.0012 17.6243 49.6534 9.81678C49.4508 9.3386 49.4264 8.80361 49.5847 8.30899C49.743 7.81437 50.0734 7.39292 50.516 7.12118C50.9585 6.84944 51.4839 6.74543 51.9966 6.82806C52.5093 6.91068 52.9754 7.17445 53.3102 7.57146C57.187 12.1964 59.266 17.3794 59.855 23.8839C60.3665 29.5318 59.6835 35.5156 58.9612 41.8506C58.7649 43.57 58.5665 45.3163 58.3867 47.0894C59.4944 46.1057 60.5948 45.3504 61.6787 44.6095C65.3913 42.0511 69.23 39.4152 74.1794 25.6539C74.3576 25.1597 74.7091 24.747 75.1685 24.4923C75.628 24.2376 76.1642 24.1582 76.6778 24.2689C77.1913 24.3796 77.6473 24.6728 77.961 25.0942C78.2748 25.5155 78.425 26.0364 78.3838 26.5601C76.9651 44.4307 71.2965 51.0221 65.289 57.9957C62.9424 60.7236 60.5194 63.5393 58.2245 67.1857C58.8697 72.5501 60.2273 77.8045 62.2615 82.81C62.3684 83.0742 62.4221 83.3568 62.4198 83.6418C62.4174 83.9268 62.3589 84.2085 62.2476 84.4709C62.1364 84.7333 61.9745 84.9712 61.7713 85.171C61.5682 85.3708 61.3276 85.5287 61.0634 85.6355C60.7992 85.7424 60.5166 85.7961 60.2316 85.7938C59.9466 85.7914 59.6649 85.7329 59.4025 85.6217C59.1401 85.5104 58.9022 85.3486 58.7024 85.1454C58.5026 84.9422 58.3447 84.7016 58.2379 84.4374C55.9607 78.833 54.4754 72.9386 53.8247 66.9243C53.7721 66.4476 53.879 65.9668 54.1285 65.5573C56.7272 61.3022 59.4055 58.1838 61.997 55.1697C65.3035 51.3341 68.3424 47.7993 70.5867 42.3931C68.2845 45.3276 66.1435 46.798 64.1369 48.1795C61.7738 49.8028 59.732 51.205 57.5673 55.1407C57.3307 55.5702 56.9557 55.9069 56.5032 56.096C56.0508 56.285 55.5477 56.3153 55.0759 56.1818C54.604 56.0483 54.1914 55.7589 53.9051 55.3608C53.6187 54.9627 53.4757 54.4794 53.4993 53.9897C53.7142 49.5693 54.1905 45.3938 54.6514 41.3557C55.26 36.0167 55.8148 31.1562 55.6846 26.6696C55.0709 31.1882 53.771 36.1469 51.7323 41.7618C51.3593 42.786 50.6443 43.6502 49.7081 44.2086L49.6203 44.2613C49.4219 44.3791 49.176 44.5268 48.8484 44.7087C48.7875 44.7428 48.6955 44.8038 48.5994 44.8678C48.3993 45.0052 48.1924 45.1325 47.9795 45.2491C45.1586 46.7463 42.0649 45.8587 39.9829 45.0621C37.3997 44.0722 34.5065 42.4045 31.4397 40.6396C27.382 38.3013 22.9998 35.7801 18.3387 34.1268C24.8825 39.0546 28.7438 43.2435 32.0204 46.799C35.733 50.8288 38.4154 53.7375 43.4258 56.1317C43.9369 56.376 44.3322 56.8106 44.5273 57.3425C44.7223 57.8744 44.7015 58.4615 44.4694 58.9783C40.6142 67.5649 36.2455 77.2964 37.8398 82.6281C37.8688 82.7232 37.8998 82.8193 37.9318 82.9133C38.046 83.2404 38.0801 83.5901 38.0315 83.9331C37.9829 84.276 37.8528 84.6024 37.6522 84.8848C37.4516 85.1673 37.1863 85.3976 36.8785 85.5565C36.5706 85.7154 36.2292 85.7983 35.8828 85.7983H35.8838Z" fill="#203529"/>
<path d="M74.3964 92.3131H22.2156C21.7626 92.313 21.3211 92.1712 20.9528 91.9076C20.5846 91.6439 20.308 91.2717 20.1619 90.843C20.0159 90.4142 20.0076 89.9506 20.1384 89.5169C20.2691 89.0833 20.5322 88.7014 20.8909 88.4248C21.1265 88.244 26.762 83.9611 36.3323 81.8118C41.989 80.5502 47.8211 80.2748 53.5716 80.9976C60.8407 81.8904 68.1925 84.3268 75.4235 88.2399C75.8481 88.4697 76.1841 88.8345 76.378 89.2767C76.572 89.7189 76.6129 90.2132 76.4943 90.6813C76.3757 91.1494 76.1044 91.5645 75.7233 91.861C75.3422 92.1575 74.873 92.3184 74.3902 92.3183L74.3964 92.3131ZM30.9737 87.9733H64.2702C55.199 84.7412 46.226 84.0737 37.4947 85.9977C35.2711 86.485 33.089 87.1455 30.9685 87.9733H30.9737ZM43.1375 78.8277C42.8681 78.8286 42.608 78.7292 42.4079 78.5489C42.2077 78.3686 42.0818 78.1203 42.0546 77.8523C41.3127 70.5625 45.5223 64.3008 45.7021 64.0383C45.8666 63.8063 46.1157 63.6482 46.3956 63.598C46.6755 63.5478 46.964 63.6095 47.1989 63.7699C47.4338 63.9303 47.5963 64.1765 47.6514 64.4555C47.7066 64.7345 47.65 65.024 47.4938 65.2617C47.4339 65.3506 43.5539 71.1659 44.2131 77.6332C44.2423 77.9195 44.1566 78.2056 43.9748 78.4286C43.793 78.6516 43.5301 78.7933 43.2439 78.8225C43.2085 78.826 43.173 78.8277 43.1375 78.8277ZM47.6271 77.8079C47.3596 77.8076 47.1016 77.7085 46.9026 77.5296C46.7037 77.3507 46.5779 77.1046 46.5494 76.8386C46.2198 73.7625 47.282 70.9283 47.3274 70.8094C47.4307 70.5419 47.6357 70.3261 47.8976 70.2092C48.1595 70.0924 48.457 70.084 48.7251 70.1858C48.9931 70.2877 49.21 70.4916 49.3282 70.7529C49.4464 71.0142 49.4563 71.3117 49.3558 71.5803C49.3392 71.6247 48.4351 74.0725 48.7069 76.6072C48.7376 76.8933 48.6533 77.1799 48.4727 77.4039C48.2921 77.6279 48.03 77.771 47.7439 77.8017C47.7051 77.8058 47.6661 77.8079 47.6271 77.8079Z" fill="#203529"/>
<path d="M45.5419 20.5381C46.3732 22.1495 46.5304 24.0251 45.9788 25.7524C45.4272 27.4796 44.2121 28.917 42.6007 29.7483C40.9893 30.5796 39.1137 30.7368 37.3864 30.1852C35.6592 29.6336 34.2218 28.4184 33.3905 26.8071C31.6598 23.451 32.8522 10.8511 32.8522 10.8511C32.8522 10.8511 43.8112 17.181 45.5419 20.5381Z" fill="#178E3B"/>
<path d="M35.0762 28.459C35.1965 28.6924 35.3617 28.8998 35.5622 29.0693C35.7627 29.2388 35.9947 29.3672 36.2448 29.4471C36.4949 29.527 36.7584 29.5568 37.02 29.5349C37.2817 29.513 37.5365 29.4398 37.7698 29.3194C38.0032 29.199 38.2106 29.0338 38.3801 28.8332C38.5496 28.6327 38.6779 28.4008 38.7578 28.1506C38.8377 27.9005 38.8675 27.637 38.8455 27.3754C38.8236 27.1137 38.7503 26.8589 38.6299 26.6256C38.5095 26.3922 38.3444 26.1848 38.1438 26.0153C37.9433 25.8458 37.7114 25.7174 37.4612 25.6375C37.2111 25.5576 36.9477 25.5278 36.686 25.5497C36.4243 25.5716 36.1696 25.6448 35.9362 25.7652C35.7028 25.8856 35.4955 26.0508 35.326 26.2513C35.1565 26.4519 35.0281 26.6838 34.9482 26.934C34.8684 27.1841 34.8386 27.4476 34.8605 27.7092C34.8825 27.9709 34.9557 28.2257 35.0762 28.459Z" fill="#2FA65B"/>
<path d="M39.4714 32.6802C37.8165 32.6788 36.1938 32.2226 34.7805 31.3616C33.3672 30.5006 32.2176 29.2679 31.4572 27.798C30.8889 26.6872 30.145 24.414 30.3031 17.5209C30.3857 13.9158 30.6802 10.7788 30.6926 10.6465C30.727 10.2846 30.8517 9.93711 31.0553 9.63596C31.259 9.33482 31.5351 9.08967 31.8582 8.92303C32.1813 8.75639 32.541 8.6736 32.9045 8.68226C33.2679 8.69092 33.6234 8.79075 33.9382 8.97259C34.0529 9.03872 36.7797 10.6176 39.7659 12.6397C45.4758 16.5073 46.8955 18.4323 47.4711 19.5431C48.1772 20.916 48.5188 22.4472 48.4633 23.9901C48.4078 25.5329 47.9569 27.0356 47.154 28.3542C46.3511 29.6728 45.2229 30.7631 43.8777 31.5206C42.5325 32.2781 41.0152 32.6774 39.4714 32.6802ZM34.7555 14.5399C34.4889 19.4367 34.6036 24.4253 35.3186 25.811C35.886 26.911 36.8672 27.7405 38.0462 28.1172C39.2253 28.4938 40.5056 28.3866 41.6056 27.8192C42.7056 27.2518 43.5352 26.2706 43.9118 25.0916C44.2884 23.9125 44.1812 22.6322 43.6138 21.5321C42.8988 20.1465 38.9 17.1614 34.7555 14.5399Z" fill="#203529"/>
<path d="M42.158 29.9834C41.9587 29.9835 41.7631 29.9287 41.5929 29.825C41.4226 29.7212 41.2843 29.5726 41.1929 29.3954L33.2635 14.016C33.1961 13.8892 33.1545 13.7503 33.1412 13.6073C33.1278 13.4644 33.143 13.3201 33.1858 13.1831C33.2287 13.046 33.2983 12.9188 33.3906 12.8088C33.483 12.6988 33.5962 12.6083 33.7239 12.5425C33.8515 12.4766 33.9909 12.4367 34.134 12.4252C34.2772 12.4136 34.4212 12.4306 34.5577 12.4751C34.6943 12.5196 34.8206 12.5908 34.9294 12.6845C35.0382 12.7782 35.1274 12.8926 35.1916 13.021L43.1262 28.4014C43.2116 28.5671 43.2529 28.7519 43.246 28.9382C43.2392 29.1245 43.1845 29.3058 43.0872 29.4648C42.9899 29.6237 42.8533 29.755 42.6906 29.8458C42.5278 29.9366 42.3444 29.984 42.158 29.9834Z" fill="#203529"/>
<path d="M38.2315 23.3735C38.1182 23.3735 38.0056 23.3557 37.8978 23.3208L32.5381 21.5869C32.2641 21.4984 32.0364 21.3046 31.9052 21.0483C31.774 20.7919 31.7501 20.4939 31.8386 20.2199C31.9271 19.9458 32.1208 19.7182 32.3772 19.587C32.6336 19.4558 32.9316 19.4318 33.2056 19.5203L38.5653 21.2542C38.8127 21.3326 39.0239 21.497 39.1604 21.7178C39.297 21.9385 39.3499 22.2009 39.3095 22.4573C39.2691 22.7137 39.1381 22.9472 38.9403 23.1152C38.7426 23.2833 38.4911 23.375 38.2315 23.3735ZM40.2547 25.5258C40.0844 25.5254 39.9167 25.4849 39.7649 25.4077C39.6132 25.3305 39.4817 25.2187 39.3812 25.0813C39.2806 24.9439 39.2137 24.7848 39.186 24.6169C39.1582 24.4489 39.1704 24.2767 39.2214 24.1143L40.916 18.7413C40.9533 18.5991 41.0192 18.4661 41.1095 18.3502C41.1998 18.2343 41.3128 18.1379 41.4415 18.067C41.5702 17.996 41.7119 17.952 41.8582 17.9375C42.0044 17.923 42.1521 17.9383 42.2922 17.9826C42.4323 18.0269 42.562 18.0991 42.6733 18.195C42.7846 18.2909 42.8754 18.4085 42.9399 18.5405C43.0045 18.6725 43.0415 18.8162 43.0489 18.963C43.0562 19.1098 43.0336 19.2565 42.9825 19.3943L41.288 24.7674C41.2185 24.987 41.0809 25.1789 40.8951 25.3153C40.7094 25.4516 40.4851 25.5253 40.2547 25.5258Z" fill="#203529"/>
<path d="M16.0159 14.8427C17.345 15.7112 18.2747 17.0722 18.6003 18.6262C18.926 20.1802 18.6209 21.8 17.7524 23.1291C16.8838 24.4582 15.5228 25.3878 13.9688 25.7135C12.4148 26.0391 10.795 25.7341 9.46594 24.8655C6.69984 23.0531 2.16992 12.9445 2.16992 12.9445C2.16992 12.9445 13.2498 13.0344 16.0159 14.8427Z" fill="#178E3B"/>
<path d="M11.4645 25.3926C11.6569 25.5184 11.8723 25.6051 12.0982 25.6477C12.3241 25.6903 12.5562 25.688 12.7812 25.6409C13.0062 25.5938 13.2197 25.5028 13.4096 25.3731C13.5995 25.2435 13.7619 25.0777 13.8877 24.8853C14.0135 24.6929 14.1001 24.4775 14.1427 24.2516C14.1852 24.0257 14.1829 23.7936 14.1357 23.5686C14.0885 23.3436 13.9975 23.1301 13.8678 22.9402C13.7382 22.7504 13.5724 22.588 13.3799 22.4623C13.1875 22.3364 12.9722 22.2497 12.7463 22.2071C12.5203 22.1645 12.2883 22.1669 12.0632 22.214C11.8382 22.2611 11.6247 22.352 11.4348 22.4817C11.245 22.6113 11.0825 22.7771 10.9567 22.9695C10.831 23.162 10.7443 23.3773 10.7018 23.6032C10.6592 23.8291 10.6616 24.0612 10.7087 24.2862C10.7559 24.5112 10.8469 24.7248 10.9766 24.9146C11.1063 25.1044 11.2721 25.2668 11.4645 25.3926Z" fill="#2FA65B"/>
<path d="M12.728 28.0057C11.1472 28.0066 9.60069 27.5455 8.27864 26.6789C7.33628 26.0672 5.75329 24.6206 2.86837 19.2476C1.37114 16.4577 0.236593 13.9344 0.189062 13.829C0.0415968 13.4987 -0.0209316 13.1367 0.00716471 12.776C0.0352611 12.4153 0.15309 12.0674 0.349934 11.7639C0.546778 11.4603 0.816388 11.2108 1.13424 11.0381C1.45209 10.8653 1.80809 10.7747 2.16987 10.7746H2.18847C2.30523 10.7746 5.07236 10.8015 8.22904 11.0536C14.3089 11.5403 16.2628 12.4144 17.2041 13.0293C18.6771 13.9901 19.7999 15.4015 20.405 17.0528C21.0101 18.704 21.0651 20.5067 20.5618 22.1918C20.0584 23.8769 19.0238 25.3541 17.6122 26.403C16.2006 27.4518 14.4876 28.0162 12.729 28.0119L12.728 28.0057ZM5.6727 15.2312C5.98268 15.8512 6.33503 16.5311 6.70598 17.2182C9.26336 21.9785 10.4444 22.9074 10.6552 23.0459C11.5021 23.5996 12.5343 23.7942 13.5247 23.5869C14.5151 23.3795 15.3826 22.7872 15.9363 21.9403C16.49 21.0934 16.6846 20.0612 16.4772 19.0708C16.2699 18.0804 15.6776 17.2129 14.8307 16.6592C14.624 16.5207 13.2911 15.8098 7.88392 15.3769C7.11309 15.3159 6.36293 15.2684 5.6727 15.2312Z" fill="#203529"/>
<path d="M17.0492 23.7547C16.8385 23.755 16.6323 23.6936 16.4561 23.578L3.77564 15.288C3.65055 15.213 3.54188 15.1134 3.45613 14.9954C3.37038 14.8774 3.30931 14.7433 3.27657 14.6012C3.24384 14.459 3.2401 14.3117 3.2656 14.1681C3.2911 14.0244 3.3453 13.8874 3.42496 13.7652C3.50463 13.643 3.60812 13.5381 3.72925 13.4568C3.85037 13.3755 3.98665 13.3195 4.12993 13.2921C4.27321 13.2647 4.42055 13.2664 4.56314 13.2972C4.70572 13.3281 4.84062 13.3873 4.95978 13.4715L17.6413 21.7615C17.8368 21.8893 17.9859 22.0768 18.0664 22.2961C18.1468 22.5154 18.1544 22.7548 18.0879 22.9787C18.0213 23.2027 17.8843 23.3991 17.6972 23.5389C17.5101 23.6788 17.2828 23.7544 17.0492 23.7547Z" fill="#203529"/>
<path d="M6.3712 21.4102C6.10214 21.4105 5.84258 21.3108 5.64291 21.1304C5.44323 20.9501 5.31769 20.702 5.29065 20.4343C5.26361 20.1666 5.337 19.8984 5.49658 19.6818C5.65616 19.4652 5.89053 19.3156 6.15421 19.262L10.9848 18.269C11.1244 18.2403 11.2682 18.2394 11.4081 18.2663C11.5481 18.2932 11.6813 18.3474 11.8003 18.4258C11.9193 18.5042 12.0216 18.6052 12.1016 18.7232C12.1815 18.8411 12.2374 18.9737 12.2661 19.1132C12.2948 19.2528 12.2957 19.3966 12.2688 19.5366C12.2419 19.6765 12.1877 19.8097 12.1093 19.9287C12.031 20.0477 11.9299 20.1501 11.8119 20.23C11.694 20.3099 11.5614 20.3658 11.4219 20.3945L6.59129 21.3875C6.51888 21.4025 6.44514 21.4101 6.3712 21.4102ZM13.6713 21.1829C13.4231 21.1827 13.1824 21.0973 12.9894 20.9411C12.7965 20.7848 12.663 20.5671 12.6112 20.3242L11.5779 15.5009C11.5179 15.2194 11.5721 14.9257 11.7287 14.6842C11.8853 14.4428 12.1314 14.2734 12.4128 14.2134C12.6942 14.1534 12.988 14.2076 13.2295 14.3642C13.4709 14.5208 13.6403 14.7669 13.7003 15.0483L14.7336 19.8717C14.7671 20.0299 14.7649 20.1936 14.7271 20.3508C14.6893 20.508 14.6168 20.6548 14.515 20.7805C14.4132 20.9062 14.2847 21.0075 14.1387 21.0771C13.9927 21.1467 13.8331 21.1829 13.6713 21.1829Z" fill="#203529"/>
<path d="M22.5255 51.4188C24.3352 51.3058 26.1156 51.9163 27.4752 53.1159C28.8347 54.3156 29.662 56.0062 29.775 57.8159C29.8881 59.6255 29.2776 61.406 28.0779 62.7655C26.8783 64.1251 25.1876 64.9524 23.378 65.0654C19.6096 65.301 8.55347 59.1416 8.55347 59.1416C8.55347 59.1416 18.7582 51.6544 22.5255 51.4188Z" fill="#178E3B"/>
<path d="M23.4477 62.3183C23.4641 62.5804 23.5318 62.8367 23.6472 63.0726C23.7626 63.3085 23.9233 63.5193 24.1202 63.6931C24.317 63.8669 24.5462 64.0002 24.7946 64.0854C25.043 64.1706 25.3057 64.206 25.5678 64.1897C25.8299 64.1733 26.0862 64.1055 26.322 63.9901C26.5579 63.8747 26.7687 63.7139 26.9425 63.517C27.1162 63.3201 27.2495 63.0909 27.3346 62.8425C27.4198 62.5941 27.4552 62.3314 27.4388 62.0693C27.4225 61.8072 27.3547 61.5509 27.2393 61.315C27.124 61.0791 26.9633 60.8683 26.7664 60.6945C26.5695 60.5207 26.3404 60.3874 26.092 60.3022C25.8436 60.217 25.5808 60.1816 25.3188 60.1979C25.0567 60.2143 24.8004 60.2821 24.5645 60.3975C24.3286 60.5129 24.1178 60.6737 23.9441 60.8706C23.7703 61.0675 23.6371 61.2967 23.5519 61.5451C23.4667 61.7935 23.4314 62.0562 23.4477 62.3183Z" fill="#2FA65B"/>
<path d="M23.1363 67.2436C21.793 67.2436 19.3059 66.8065 13.6301 64.1582C10.3618 62.632 7.60812 61.1017 7.49239 61.0377C7.1747 60.8607 6.90658 60.6067 6.71266 60.2991C6.51875 59.9915 6.40526 59.64 6.38263 59.2771C6.35999 58.9141 6.42894 58.5513 6.58313 58.222C6.73733 57.8926 6.97182 57.6073 7.26507 57.3922C7.3684 57.3137 9.91337 55.4528 12.9667 53.5319C18.8037 49.8596 21.1379 49.3316 22.3861 49.2531C24.7703 49.1041 27.116 49.9084 28.9072 51.489C30.6984 53.0695 31.7884 55.2969 31.9373 57.6811C32.0862 60.0652 31.282 62.4109 29.7014 64.2021C28.1209 65.9933 25.8935 67.0833 23.5093 67.2322C23.3988 67.2384 23.2737 67.2436 23.1363 67.2436ZM12.7001 58.8833C16.9686 61.0418 21.4634 62.9038 23.126 62.9038H23.2458C23.8575 62.8656 24.4556 62.7073 25.006 62.4379C25.5565 62.1686 26.0485 61.7934 26.454 61.3339C26.8595 60.8744 27.1705 60.3396 27.3693 59.7599C27.568 59.1802 27.6507 58.567 27.6125 57.9554C27.5743 57.3438 27.416 56.7456 27.1466 56.1952C26.8773 55.6447 26.5022 55.1527 26.0427 54.7472C25.5832 54.3417 25.0483 54.0307 24.4686 53.832C23.8889 53.6332 23.2757 53.5505 22.6641 53.5887C21.1059 53.6817 16.764 56.143 12.697 58.8833H12.7001Z" fill="#203529"/>
<path d="M11.5491 60.0395C11.2613 60.0483 10.9819 59.9424 10.7722 59.7451C10.5625 59.5479 10.4398 59.2754 10.431 58.9876C10.4223 58.6999 10.5282 58.4204 10.7254 58.2108C10.9227 58.0011 11.1952 57.8784 11.4829 57.8696L28.7553 56.7909C29.043 56.7729 29.3261 56.87 29.5423 57.0608C29.7585 57.2516 29.89 57.5204 29.9079 57.8081C29.9259 58.0959 29.8288 58.379 29.638 58.5951C29.4472 58.8113 29.1784 58.9428 28.8907 58.9608L11.6173 60.0374L11.5491 60.0395Z" fill="#203529"/>
<path d="M17.446 64.1127C17.2368 64.1126 17.0321 64.0521 16.8566 63.9384C16.681 63.8247 16.5421 63.6626 16.4565 63.4718C16.3709 63.2809 16.3423 63.0694 16.3741 62.8627C16.4059 62.6559 16.4968 62.4628 16.6359 62.3065L20.3784 58.099C20.5703 57.8839 20.8397 57.7538 21.1275 57.7373C21.4152 57.7208 21.6977 57.8194 21.9129 58.0112C22.128 58.203 22.2581 58.4724 22.2746 58.7602C22.291 59.048 22.1925 59.3305 22.0007 59.5456L18.2581 63.7562C18.1556 63.8696 18.0302 63.96 17.8902 64.0214C17.7502 64.0829 17.5988 64.114 17.446 64.1127ZM23.9722 58.9153C23.7091 58.9158 23.4549 58.8203 23.2572 58.6467L19.0207 54.9351C18.9135 54.8412 18.8259 54.7271 18.7627 54.5993C18.6996 54.4716 18.6623 54.3326 18.6529 54.1904C18.6435 54.0482 18.6622 53.9056 18.7079 53.7706C18.7537 53.6356 18.8255 53.511 18.9194 53.4038C19.0133 53.2966 19.1274 53.2089 19.2552 53.1458C19.383 53.0827 19.5219 53.0454 19.6641 53.036C19.8063 53.0266 19.949 53.0453 20.084 53.091C20.2189 53.1367 20.3436 53.2086 20.4508 53.3025L24.6872 57.0141C24.8533 57.1595 24.9711 57.3521 25.0248 57.5662C25.0786 57.7803 25.0658 58.0057 24.988 58.2123C24.9103 58.4189 24.7715 58.5969 24.59 58.7225C24.4084 58.8481 24.1929 58.9154 23.9722 58.9153Z" fill="#203529"/>
<path d="M76.7729 19.7787C75.8861 21.3602 74.4074 22.5246 72.662 23.0158C70.9167 23.5071 69.0477 23.2848 67.4662 22.398C65.8846 21.5112 64.7202 20.0325 64.229 18.2871C63.7377 16.5418 63.96 14.6728 64.8468 13.0912C66.6933 9.79817 77.8661 3.85162 77.8661 3.85162C77.8661 3.85162 78.6153 16.4856 76.7729 19.7787Z" fill="#178E3B"/>
<path d="M65.1576 18.1322C65.3867 18.2607 65.6387 18.3427 65.8995 18.3737C66.1602 18.4047 66.4245 18.384 66.6772 18.3129C66.93 18.2418 67.1662 18.1215 67.3725 17.9591C67.5788 17.7967 67.7511 17.5952 67.8795 17.3662C68.0079 17.1371 68.0899 16.8851 68.1209 16.6243C68.1519 16.3636 68.1313 16.0993 68.0601 15.8466C67.989 15.5938 67.8688 15.3576 67.7063 15.1513C67.5439 14.945 67.3424 14.7727 67.1134 14.6443C66.8844 14.5159 66.6323 14.4339 66.3716 14.4029C66.1108 14.3719 65.8465 14.3925 65.5938 14.4637C65.3411 14.5348 65.1048 14.655 64.8985 14.8175C64.6922 14.9799 64.52 15.1814 64.3915 15.4104C64.2631 15.6394 64.1811 15.8915 64.1501 16.1522C64.1191 16.413 64.1398 16.6773 64.2109 16.93C64.282 17.1827 64.4023 17.419 64.5647 17.6253C64.7271 17.8316 64.9286 18.0038 65.1576 18.1322Z" fill="#2FA65B"/>
<path d="M70.7923 25.4473C69.2219 25.4442 67.6796 25.0308 66.3183 24.248C64.9569 23.4652 63.8238 22.3402 63.0313 20.9845C62.2387 19.6288 61.8142 18.0895 61.7999 16.5191C61.7856 14.9488 62.182 13.4021 62.9497 12.0321C63.5614 10.94 65.0504 9.06559 70.8905 5.40156C73.9449 3.48379 76.7244 2.00103 76.8412 1.93903C77.162 1.76802 77.5206 1.68035 77.8841 1.68407C78.2476 1.6878 78.6044 1.78279 78.9216 1.96034C79.2389 2.13788 79.5064 2.39228 79.6997 2.70018C79.893 3.00808 80.0058 3.35961 80.0278 3.72248C80.0361 3.85474 80.221 7.00005 80.1776 10.6062C80.096 17.5023 79.2735 19.7497 78.6618 20.8357C78.086 21.8695 77.3109 22.7787 76.3814 23.5109C75.4518 24.2431 74.3862 24.7836 73.2464 25.1011C72.4481 25.3285 71.6223 25.445 70.7923 25.4473ZM75.8316 7.46813C71.5952 9.94801 67.4982 12.7885 66.7387 14.1483C66.439 14.6829 66.2475 15.2712 66.1751 15.8798C66.1028 16.4884 66.151 17.1053 66.317 17.6952C66.4831 18.2852 66.7637 18.8366 67.1428 19.3181C67.522 19.7996 67.9923 20.2017 68.5268 20.5015C69.0614 20.8012 69.6498 20.9927 70.2584 21.0651C70.8669 21.1374 71.4838 21.0892 72.0737 20.9232C72.6637 20.7571 73.2151 20.4765 73.6966 20.0974C74.1781 19.7182 74.5802 19.2479 74.88 18.7134C75.6364 17.3577 75.9277 12.3752 75.8316 7.46813Z" fill="#203529"/>
<path d="M67.9291 22.6502C67.7398 22.6501 67.5538 22.6004 67.3896 22.5062C67.2255 22.412 67.0888 22.2765 66.9932 22.1131C66.8976 21.9497 66.8465 21.7642 66.8448 21.5749C66.8431 21.3856 66.891 21.1992 66.9836 21.0341L75.4472 5.93888C75.588 5.68785 75.8226 5.50301 76.0996 5.42501C76.3766 5.34702 76.6733 5.38226 76.9243 5.52298C77.1753 5.6637 77.3602 5.89838 77.4382 6.17538C77.5162 6.45239 77.4809 6.74903 77.3402 7.00006L68.8766 22.0953C68.7823 22.2637 68.6448 22.4039 68.4782 22.5015C68.3116 22.599 68.1221 22.6503 67.9291 22.6502Z" fill="#203529"/>
<path d="M71.279 15.7272C71.042 15.727 70.8116 15.6492 70.6229 15.5057C70.4343 15.3622 70.2978 15.1609 70.2344 14.9326L68.7279 9.50368C68.6866 9.36548 68.6733 9.22044 68.6887 9.07704C68.7042 8.93364 68.7481 8.79476 68.8178 8.66852C68.8876 8.54228 68.9818 8.43121 69.095 8.34182C69.2082 8.25243 69.3381 8.1865 69.477 8.1479C69.616 8.10929 69.7613 8.09878 69.9044 8.11698C70.0474 8.13518 70.1854 8.18173 70.3103 8.2539C70.4352 8.32607 70.5444 8.42241 70.6316 8.53729C70.7188 8.65218 70.7823 8.78329 70.8182 8.92298L72.3299 14.3519C72.3744 14.513 72.3812 14.6823 72.3495 14.8465C72.3179 15.0107 72.2488 15.1654 72.1476 15.2985C72.0464 15.4316 71.9158 15.5395 71.7661 15.6139C71.6163 15.6882 71.4514 15.727 71.2842 15.7272H71.279ZM70.5991 18.6007C70.3372 18.6009 70.0841 18.5064 69.8864 18.3347C69.6888 18.1629 69.5599 17.9254 69.5237 17.666C69.4874 17.4066 69.5462 17.1429 69.6891 16.9235C69.8321 16.704 70.0496 16.5437 70.3015 16.4721L75.718 14.9222C75.9926 14.85 76.2845 14.8882 76.5311 15.0287C76.7778 15.1692 76.9596 15.4008 77.0375 15.6738C77.1154 15.9468 77.0831 16.2394 76.9477 16.4889C76.8123 16.7384 76.5845 16.9249 76.3132 17.0084L70.8967 18.5583C70.8 18.5862 70.6998 18.6005 70.5991 18.6007Z" fill="#203529"/>
<path d="M80.8379 65.3124C79.1432 65.957 77.2619 65.9021 75.6077 65.1597C73.9535 64.4172 72.662 63.048 72.0173 61.3533C71.3726 59.6586 71.4275 57.7773 72.17 56.1231C72.9125 54.4689 74.2816 53.1774 75.9763 52.5327C79.505 51.1894 91.8889 53.7933 91.8889 53.7933C91.8889 53.7933 84.3676 63.9701 80.8379 65.3124Z" fill="#178E3B"/>
<path d="M72.9863 56.5993C73.0796 56.8447 73.2204 57.0693 73.4006 57.2603C73.5808 57.4513 73.7968 57.605 74.0364 57.7125C74.2759 57.82 74.5343 57.8792 74.7967 57.8869C75.0592 57.8946 75.3206 57.8504 75.566 57.7571C75.8114 57.6637 76.036 57.5229 76.227 57.3427C76.418 57.1626 76.5716 56.9465 76.6791 56.707C76.7866 56.4674 76.8459 56.2091 76.8536 55.9466C76.8612 55.6842 76.8171 55.4228 76.7237 55.1774C76.5352 54.6818 76.1574 54.2813 75.6736 54.0642C75.1899 53.8471 74.6396 53.8311 74.144 54.0196C73.6484 54.2082 73.248 54.5859 73.0309 55.0697C72.8138 55.5535 72.7977 56.1037 72.9863 56.5993Z" fill="#2FA65B"/>
<path d="M78.4179 67.9297C76.3108 67.9317 74.2697 67.195 72.6496 65.8477C71.0296 64.5004 69.9332 62.6277 69.5511 60.5555C69.1691 58.4834 69.5257 56.3428 70.5588 54.5064C71.5919 52.6699 73.2361 51.2538 75.2054 50.5044C76.3741 50.0601 78.7186 49.5744 85.5517 50.5044C89.1248 50.9921 92.2091 51.641 92.3383 51.6647C92.6935 51.7398 93.0243 51.9027 93.3002 52.1387C93.5762 52.3747 93.7885 52.6761 93.9177 53.0154C94.047 53.3547 94.089 53.721 94.04 54.0808C93.991 54.4405 93.8524 54.7822 93.6371 55.0746C93.5586 55.1779 91.6832 57.7126 89.3377 60.4477C84.8522 65.6864 82.7804 66.8829 81.6108 67.3273C80.592 67.7209 79.51 67.925 78.4179 67.9297ZM78.9728 54.3151C77.9705 54.3151 77.1945 54.3906 76.7481 54.561C75.5912 55.0012 74.6566 55.8828 74.1498 57.0121C73.6429 58.1413 73.6055 59.4256 74.0456 60.5825C74.4857 61.7394 75.3673 62.674 76.4966 63.1809C77.6258 63.6877 78.9102 63.7252 80.067 63.2851C81.524 62.7302 84.941 59.093 88.0119 55.2699C84.6579 54.7036 81.2398 54.3151 78.9728 54.3151Z" fill="#203529"/>
<path d="M72.9115 62.0989C72.6574 62.0994 72.4112 62.0108 72.2158 61.8484C72.0204 61.686 71.8881 61.4602 71.8421 61.2103C71.7962 60.9604 71.8393 60.7023 71.9641 60.481C72.0889 60.2597 72.2875 60.0892 72.5251 59.9992L88.7001 53.846C88.9691 53.7437 89.2677 53.7524 89.5303 53.8702C89.7928 53.988 89.9978 54.2053 90.1002 54.4743C90.2026 54.7432 90.1939 55.0419 90.0761 55.3044C89.9582 55.567 89.7409 55.772 89.472 55.8744L73.2969 62.0255C73.174 62.0732 73.0434 62.0981 72.9115 62.0989Z" fill="#203529"/>
<path d="M79.9204 58.936C79.739 58.9357 79.5606 58.89 79.4014 58.803C79.2422 58.7161 79.1074 58.5906 79.0091 58.4381C78.9109 58.2856 78.8524 58.111 78.8391 57.9301C78.8257 57.7492 78.8578 57.5679 78.9326 57.4026L81.2574 52.2713C81.3762 52.0092 81.5943 51.805 81.8637 51.7036C82.133 51.6023 82.4316 51.6121 82.6937 51.7309C82.9558 51.8497 83.16 52.0678 83.2614 52.3371C83.3627 52.6065 83.3529 52.905 83.2341 53.1672L80.9061 58.2985C80.8203 58.4881 80.6817 58.649 80.5069 58.7621C80.3321 58.8751 80.1285 58.9355 79.9204 58.936ZM82.703 62.9927C82.5513 62.9926 82.4013 62.9605 82.2628 62.8986L77.115 60.6109C76.9848 60.5531 76.8673 60.4701 76.7691 60.3668C76.671 60.2635 76.5942 60.1419 76.543 60.0089C76.4919 59.8759 76.4675 59.7342 76.4711 59.5918C76.4747 59.4493 76.5064 59.309 76.5643 59.1788C76.6812 58.9159 76.8977 58.7101 77.1663 58.6068C77.2993 58.5557 77.441 58.5312 77.5835 58.5349C77.7259 58.5385 77.8662 58.5702 77.9964 58.6281L83.1442 60.9158C83.3718 61.0166 83.5578 61.1926 83.671 61.4142C83.7842 61.6359 83.8177 61.8897 83.766 62.1332C83.7143 62.3766 83.5804 62.5949 83.3869 62.7514C83.1934 62.9079 82.9519 62.9931 82.703 62.9927ZM43.058 53.6972C42.9731 53.6971 42.8884 53.6871 42.8059 53.6673C39.1418 52.7962 35.3962 47.512 34.9818 46.9127C34.8174 46.6761 34.7537 46.3838 34.8048 46.1002C34.8559 45.8166 35.0175 45.5649 35.2541 45.4005C35.4908 45.2361 35.783 45.1724 36.0666 45.2234C36.3502 45.2745 36.6019 45.4361 36.7663 45.6728C37.7645 47.1132 40.886 50.9756 43.308 51.5511C43.5671 51.6122 43.7947 51.7663 43.9475 51.9842C44.1003 52.2021 44.1677 52.4686 44.1368 52.733C44.1059 52.9973 43.9789 53.2411 43.78 53.418C43.5811 53.5948 43.3241 53.6924 43.058 53.6921V53.6972ZM27.4461 88.2099C27.2338 88.2089 27.0264 88.1456 26.8497 88.0279C26.6731 87.9101 26.5348 87.7432 26.4521 87.5476L22.4533 78.1654C22.3631 77.9056 22.375 77.6213 22.4864 77.3699C22.5979 77.1186 22.8006 76.9189 23.0536 76.8113C23.3067 76.7037 23.5911 76.6961 23.8495 76.7902C24.1079 76.8843 24.3209 77.073 24.4455 77.3181L26.668 82.5321L26.8416 79.9488C26.861 79.6611 26.9938 79.3928 27.2109 79.203C27.428 79.0132 27.7117 78.9174 27.9994 78.9367C28.2872 78.9561 28.5555 79.0889 28.7453 79.306C28.9351 79.5232 29.0309 79.8068 29.0115 80.0945L28.5342 87.2015C28.5156 87.476 28.3934 87.7333 28.1924 87.9213C27.9914 88.1093 27.7265 88.2139 27.4513 88.2141L27.4461 88.2099ZM65.3841 86.9411C65.2417 86.9411 65.1006 86.913 64.969 86.8585C64.8373 86.804 64.7177 86.724 64.617 86.6233C64.5162 86.5225 64.4363 86.4029 64.3818 86.2713C64.3273 86.1397 64.2992 85.9986 64.2992 85.8561V73.7119C64.2992 73.4242 64.4135 73.1482 64.617 72.9448C64.8204 72.7413 65.0964 72.627 65.3841 72.627C65.6719 72.627 65.9479 72.7413 66.1513 72.9448C66.3548 73.1482 66.4691 73.4242 66.4691 73.7119V81.817L67.709 79.6812C67.7788 79.5549 67.8731 79.4437 67.9863 79.3543C68.0996 79.2648 68.2296 79.1989 68.3687 79.1603C68.5077 79.1217 68.6531 79.1112 68.7963 79.1295C68.9394 79.1478 69.0775 79.1945 69.2024 79.2668C69.3273 79.3391 69.4365 79.4356 69.5237 79.5507C69.6108 79.6657 69.6741 79.797 69.7099 79.9368C69.7456 80.0766 69.7532 80.2222 69.732 80.365C69.7108 80.5077 69.6613 80.6448 69.5865 80.7682L66.3265 86.4007C66.2308 86.5656 66.0933 86.7024 65.9278 86.7973C65.7624 86.8922 65.5749 86.9418 65.3841 86.9411Z" fill="#203529"/>
</g>
<defs>
<clipPath id="clip0_11_17">
<rect width="94" height="94" fill="white"/>
</clipPath>
</defs>
</svg>
